<svg xmlns="http://www.w3.org/2000/svg" width="24" height="24" viewBox="0 0 24 24">
  <g id="그룹_1124" data-name="그룹 1124" transform="translate(-920 -776)">
    <rect id="사각형_1965" data-name="사각형 1965" width="24" height="24" transform="translate(920 776)" fill="#fff"/>
    <g id="Icon_feather-search" data-name="Icon feather-search" transform="translate(919.5 775.5)">
      <g id="패스_155" data-name="패스 155" transform="translate(0 0)" fill="none" stroke-linecap="round" stroke-linejoin="round">
        <path d="M18.725,11.613A7.113,7.113,0,1,1,11.613,4.5,7.113,7.113,0,0,1,18.725,11.613Z" stroke="none"/>
        <path d="M 11.6125545501709 6.000003814697266 C 8.517784118652344 6.000003814697266 6.000003814697266 8.517784118652344 6.000003814697266 11.6125545501709 C 6.000003814697266 14.70732498168945 8.517784118652344 17.22510528564453 11.6125545501709 17.22510528564453 C 14.70732498168945 17.22510528564453 17.22510528564453 14.70732498168945 17.22510528564453 11.6125545501709 C 17.22510528564453 8.517784118652344 14.70732498168945 6.000003814697266 11.6125545501709 6.000003814697266 M 11.6125545501709 4.500003814697266 C 15.54071426391602 4.500003814697266 18.72510528564453 7.684394836425781 18.72510528564453 11.6125545501709 C 18.72510528564453 15.54071426391602 15.54071426391602 18.72510528564453 11.6125545501709 18.72510528564453 C 7.684394836425781 18.72510528564453 4.500003814697266 15.54071426391602 4.500003814697266 11.6125545501709 C 4.500003814697266 7.684394836425781 7.684394836425781 4.500003814697266 11.6125545501709 4.500003814697266 Z" stroke="none" fill="#bdbdbd"/>
      </g>
      <path id="패스_156" data-name="패스 156" d="M28.835,28.835l-3.86-3.86" transform="translate(-8.335 -8.335)" fill="none" stroke="#bdbdbd" stroke-linecap="round" stroke-linejoin="round" stroke-width="1.5"/>
    </g>
  </g>
</svg>
